<svg width="112" height="33" viewBox="0 0 112 33" fill="none" xmlns="http://www.w3.org/2000/svg">
<g clip-path="url(#clip0_1_1408)">
<path fill-rule="evenodd" clip-rule="evenodd" d="M14.8432 2.31367C16.3271 3.80653 17.1956 5.90642 17.2946 8.47845C21.8215 10.3586 25.0049 14.8222 25.0049 20.0294C25.0049 26.9342 19.4075 32.5316 12.5027 32.5316H0.000501703V20.0294C0.000501703 19.6284 0.0193816 19.2317 0.0563009 18.8404L0.0544492 18.7404C-0.0306343 14.118 -0.0582684 9.46073 0.295566 7.2198C1.04549 2.4703 5.35367 -0.0661156 9.23386 0.00131034C11.2298 0.0359942 13.2826 0.743632 14.8432 2.31367ZM11.7591 5.3793C12.2046 5.82752 12.6189 6.50933 12.823 7.53123C12.7166 7.52857 12.6097 7.5272 12.5027 7.5272C9.40886 7.5272 6.57748 8.65101 4.39452 10.5126C4.43191 9.40362 4.49471 8.5074 4.59094 7.89797C4.93306 5.73119 6.96817 4.31118 9.15828 4.34923C10.1975 4.3673 11.1116 4.72787 11.7591 5.3793ZM4.49379 22.9659C4.53515 24.7924 4.57556 26.5765 4.59944 28.183H12.5027C17.0058 28.183 20.6563 24.5325 20.6563 20.0294C20.6563 15.5263 17.0058 11.8758 12.5027 11.8758C8.33671 11.8758 4.9005 15.0001 4.4093 19.0335C4.43417 20.333 4.46422 21.6602 4.49379 22.9657L4.49379 22.9658V22.9659ZM86.9721 20.0294C86.9721 13.1246 92.5692 7.5272 99.4745 7.5272C106.379 7.5272 111.976 13.1246 111.976 20.0294C111.976 26.9342 106.379 32.5316 99.4745 32.5316C92.5692 32.5316 86.9721 26.9342 86.9721 20.0294ZM99.4745 11.8758C94.9708 11.8758 91.3206 15.5263 91.3206 20.0294C91.3206 24.5325 94.9708 28.183 99.4745 28.183C103.978 28.183 107.628 24.5325 107.628 20.0294C107.628 15.5263 103.978 11.8758 99.4745 11.8758ZM74.6513 32.6143C80.3548 32.6143 84.9792 27.9904 84.9792 22.2865V11.9586V0.180483H80.6299V11.9586H74.6513C68.9472 11.9586 64.3232 16.5825 64.3232 22.2865C64.3232 27.9904 68.9472 32.6143 74.6513 32.6143ZM80.6307 22.2865C80.6307 25.5887 77.9531 28.2657 74.6513 28.2657C71.3488 28.2657 68.6718 25.5887 68.6718 22.2865C68.6718 18.9842 71.3488 16.3072 74.6513 16.3072H80.6307V22.2865ZM31.3464 24.0092V7.79258H26.9978V24.0092C26.9978 28.7625 30.8511 32.6158 35.6044 32.6158C40.3576 32.6158 44.211 28.7625 44.211 24.0092V7.79258H39.8624V24.0092C39.8624 26.3608 37.956 28.2672 35.6044 28.2672C33.2528 28.2672 31.3464 26.3608 31.3464 24.0092ZM59.0686 32.2534V16.0368C59.0686 13.6852 57.1622 11.7788 54.8107 11.7788C52.459 11.7788 50.5527 13.6852 50.5527 16.0368V32.2533H46.2041V16.0368C46.2041 11.2835 50.0574 7.43022 54.8107 7.43022C59.564 7.43022 63.4172 11.2835 63.4172 16.0368V32.2534H59.0686Z" fill="#34A853"/>
<path d="M10.5094 18.8441C10.5094 20.6453 11.9696 22.1055 13.7708 22.1055C15.572 22.1055 17.0322 20.6453 17.0322 18.8441C17.0322 17.0428 15.572 15.5826 13.7708 15.5826C11.9696 15.5826 10.5094 17.0428 10.5094 18.8441Z" fill="#FDE74C"/>
</g>
<defs>
<clipPath id="clip0_1_1408">
<rect width="112" height="32.6158" fill="white"/>
</clipPath>
</defs>
</svg>
