<svg width="34" height="33" viewBox="0 0 34 33" fill="none" xmlns="http://www.w3.org/2000/svg">
<g clip-path="url(#clip0_1_1405)">
<path d="M29.9996 4.42212H1.99958C1.84244 4.42212 1.71387 4.55069 1.71387 4.70783V6.99355C1.71387 7.15069 1.84244 7.27926 1.99958 7.27926H29.9996C30.1567 7.27926 30.2853 7.15069 30.2853 6.99355V4.70783C30.2853 4.55069 30.1567 4.42212 29.9996 4.42212ZM29.9996 26.7078H1.99958C1.84244 26.7078 1.71387 26.8364 1.71387 26.9936V29.2793C1.71387 29.4364 1.84244 29.565 1.99958 29.565H29.9996C30.1567 29.565 30.2853 29.4364 30.2853 29.2793V26.9936C30.2853 26.8364 30.1567 26.7078 29.9996 26.7078ZM29.9996 15.565H1.99958C1.84244 15.565 1.71387 15.6935 1.71387 15.8507V18.1364C1.71387 18.2935 1.84244 18.4221 1.99958 18.4221H29.9996C30.1567 18.4221 30.2853 18.2935 30.2853 18.1364V15.8507C30.2853 15.6935 30.1567 15.565 29.9996 15.565Z" fill="#34A853"/>
<circle cx="28" cy="6" r="5.5" fill="#11270B" stroke="#F1E9DB"/>
</g>
<defs>
<clipPath id="clip0_1_1405">
<rect width="34" height="33" fill="white"/>
</clipPath>
</defs>
</svg>
