<svg width="25" height="24" viewBox="0 0 25 24" fill="none" xmlns="http://www.w3.org/2000/svg">
<path fill-rule="evenodd" clip-rule="evenodd" d="M12.5 22.0001C6.98 22.0001 2.5 17.5301 2.5 12.0001C2.5 6.48012 6.98 2.00012 12.5 2.00012C18.03 2.00012 22.5 6.48012 22.5 12.0001C22.5 17.5301 18.03 22.0001 12.5 22.0001ZM15.69 15.7101C15.81 15.7801 15.94 15.8201 16.08 15.8201C16.33 15.8201 16.58 15.6901 16.72 15.4501C16.93 15.1001 16.82 14.6401 16.46 14.4201L12.9 12.3001V7.68012C12.9 7.26012 12.56 6.93012 12.15 6.93012C11.74 6.93012 11.4 7.26012 11.4 7.68012V12.7301C11.4 12.9901 11.54 13.2301 11.77 13.3701L15.69 15.7101Z" fill="#34A853"/>
<path fill-rule="evenodd" clip-rule="evenodd" d="M12.5 22.0001C6.98 22.0001 2.5 17.5301 2.5 12.0001C2.5 6.48012 6.98 2.00012 12.5 2.00012C18.03 2.00012 22.5 6.48012 22.5 12.0001C22.5 17.5301 18.03 22.0001 12.5 22.0001ZM15.69 15.7101C15.81 15.7801 15.94 15.8201 16.08 15.8201C16.33 15.8201 16.58 15.6901 16.72 15.4501C16.93 15.1001 16.82 14.6401 16.46 14.4201L12.9 12.3001V7.68012C12.9 7.26012 12.56 6.93012 12.15 6.93012C11.74 6.93012 11.4 7.26012 11.4 7.68012V12.7301C11.4 12.9901 11.54 13.2301 11.77 13.3701L15.69 15.7101Z" fill="black" fill-opacity="0.2"/>
</svg>
