<svg width="59" height="59" viewBox="0 0 59 59" fill="none" xmlns="http://www.w3.org/2000/svg">
<rect width="59" height="59" rx="13" fill="white"/>
<circle cx="29.5" cy="29.5" r="19.5" fill="#0A541E"/>
<path fill-rule="evenodd" clip-rule="evenodd" d="M27.3987 23.2026C29.0374 22.2505 31.0515 22.2671 32.6748 23.2462C34.2821 24.2452 35.259 26.0281 35.2499 27.9461C35.2125 29.8515 34.165 31.6425 32.8556 33.0271C32.0999 33.8298 31.2545 34.5396 30.3366 35.142C30.2421 35.1967 30.1386 35.2333 30.0311 35.25C29.9277 35.2456 29.827 35.215 29.7381 35.1611C28.3368 34.2559 27.1075 33.1005 26.1092 31.7505C25.2739 30.6235 24.7994 29.262 24.75 27.8508C24.7489 25.9292 25.7601 24.1547 27.3987 23.2026ZM28.3452 28.6459C28.6208 29.3254 29.2714 29.7687 29.9932 29.7687C30.4661 29.7721 30.9207 29.5827 31.2556 29.2427C31.5906 28.9027 31.7781 28.4403 31.7765 27.9586C31.779 27.2233 31.3461 26.559 30.68 26.2759C30.0138 25.9927 29.2458 26.1466 28.7345 26.6656C28.2232 27.1846 28.0695 27.9664 28.3452 28.6459Z" fill="#FFC043"/>
<ellipse opacity="0.4" cx="30" cy="36.75" rx="3.75" ry="0.75" fill="#FFC043"/>
</svg>
