<svg width="62" height="62" viewBox="0 0 62 62" fill="none" xmlns="http://www.w3.org/2000/svg">
<path fill-rule="evenodd" clip-rule="evenodd" d="M22.04 7.58662C27.6842 4.30708 34.6219 4.36441 40.2131 7.73677C45.7494 11.1778 49.1142 17.3191 49.0829 23.9254C48.954 30.4883 45.346 36.6575 40.836 41.4265C38.2329 44.1915 35.3209 46.6364 32.1595 48.7114C31.8339 48.8997 31.4773 49.0257 31.1072 49.0833C30.751 49.0681 30.4041 48.9629 30.0978 48.777C25.2713 45.6593 21.0369 41.6796 17.5985 37.0294C14.7213 33.1476 13.0867 28.458 12.9167 23.5972C12.9129 16.9783 16.3958 10.8662 22.04 7.58662ZM25.3018 26.3364C26.2512 28.6771 28.4922 30.2039 30.9785 30.2039C32.6073 30.2156 34.173 29.5631 35.3268 28.392C36.4806 27.2208 37.1265 25.6282 37.1207 23.9691C37.1294 21.4365 35.6385 19.1484 33.344 18.1731C31.0495 17.1978 28.4041 17.7277 26.6429 19.5153C24.8818 21.303 24.3523 23.9958 25.3018 26.3364Z" fill="#34A853"/>
<ellipse opacity="0.4" cx="30.9999" cy="54.25" rx="12.9167" ry="2.58333" fill="#34A853"/>
</svg>
